<svg id="Layer_1" data-name="Layer 1" xmlns="http://www.w3.org/2000/svg" xmlns:xlink="http://www.w3.org/1999/xlink" viewBox="0 0 411.6 276.04"><defs><style>.cls-1{fill:url(#linear-gradient);}.cls-2{fill:url(#linear-gradient-2);}</style><linearGradient id="linear-gradient" x1="348.95" y1="542.39" x2="35.36" y2="228.79" gradientUnits="userSpaceOnUse"><stop offset="0" stop-color="#f2dabf"/><stop offset="0.1" stop-color="#ebd4ba"/><stop offset="0.25" stop-color="#d7c2ac"/><stop offset="0.42" stop-color="#b6a695"/><stop offset="0.62" stop-color="#897f74"/><stop offset="0.84" stop-color="#4f4d4c"/><stop offset="1" stop-color="#20242a"/></linearGradient><linearGradient id="linear-gradient-2" x1="290.02" y1="267.39" x2="252" y2="229.37" xlink:href="#linear-gradient"/></defs><path class="cls-1" d="M411.6,368V471.45a20,20,0,0,1-40.07,0A1.9,1.9,0,0,0,368.4,470a124.43,124.43,0,0,1-112.84,22.42c-.07,0-.1,0-.13,0a124.42,124.42,0,0,1-61.22-40.66c-.09-.12-.21-.24-.31-.4-15.28-18.85-23.1-42.67-23.1-66.93V337.06a51.72,51.72,0,0,0-14-35.32h0q-17.9-19-48.79-18.95-31.41,0-49.89,19.6T39.66,359.48V471.94a19.5,19.5,0,0,1-19.5,19.51h-.65A19.5,19.5,0,0,1,0,471.94V272.23a19.5,19.5,0,0,1,19.51-19.5h.73c10.89,0,18.79,9,19.43,19.83a5,5,0,0,0,5,4.67,4.67,4.67,0,0,0,3.54-1.55,81,81,0,0,1,23.45-17.3q20.26-10,44.67-10,33.26,0,56.87,15.37a86.89,86.89,0,0,1,13.69,11A79.38,79.38,0,0,1,198,288.23q14.07,21.52,15.69,53.7v.12c.18,2.86.25,5.72.25,8.7v41.34a57,57,0,0,0,6.6,26.3l.29.54q10.9,20.26,29.2,30.93a78.86,78.86,0,0,0,40.5,10.69,80.29,80.29,0,0,0,40.75-10.69c1.15-.65,2.3-1.37,3.41-2.11a.32.32,0,0,0,.22-.16,76.65,76.65,0,0,0,25.35-27.89c.15-.25.28-.49.43-.77q10.86-20.26,10.87-47.28t-10.87-47a80.62,80.62,0,0,0-16.06-20.92c-6.58-6.08-8.71-15.93-4-23.54a18.32,18.32,0,0,1,15.58-8.71,17.62,17.62,0,0,1,10.9,3.75c1.49,1.18,3,2.43,4.44,3.67,1.24,1.06,2.42,2.14,3.64,3.23C398.9,304.16,411.6,335.62,411.6,368Z" transform="translate(0 -221.37)"/><path class="cls-2" d="M252.17,267.55a27,27,0,0,1,19.17-46.18,24.85,24.85,0,0,1,18.51,7.84,27.92,27.92,0,0,1,0,38.34,24.89,24.89,0,0,1-18.51,7.84A26.08,26.08,0,0,1,252.17,267.55Z" transform="translate(0 -221.37)"/></svg>