<svg id="Layer_1" data-name="Layer 1" xmlns="http://www.w3.org/2000/svg" viewBox="0 0 549.8 205.34"><defs><style>.cls-1{fill:#f2dabf;}</style></defs><path class="cls-1" d="M240.87,343.8a11.87,11.87,0,0,1,10,18.36,64.09,64.09,0,0,1-15,15.7Q218.34,391,192.36,391q-20.67,0-37-9.27a64.66,64.66,0,0,1-8.64-5.88,66.3,66.3,0,0,1-16.93-20.51,72.9,72.9,0,0,1-4.52-10.11,41.8,41.8,0,0,1-2.4-14.06V306.42a70.77,70.77,0,0,0-.6-9.56Q120.35,282,112,273.16q-10.87-11.54-29.69-11.53-19.1,0-30.35,11.93T40.72,308.29v68.43a11.87,11.87,0,0,1-11.88,11.87h-.38a11.86,11.86,0,0,1-11.87-11.87V255.22a11.87,11.87,0,0,1,11.87-11.88h.38a11.88,11.88,0,0,1,11.88,11.88h0a3,3,0,0,0,5.2,2.08,49.23,49.23,0,0,1,14.26-10.52,60.56,60.56,0,0,1,27.18-6.09q26.51,0,42.94,16a48.43,48.43,0,0,1,6.75,8.22q8.55,13.1,9.54,32.68c.11,1.75.15,3.53.15,5.36v25.07A40.83,40.83,0,0,0,158.3,357c.52.51,1,1,1.59,1.51q13.38,12.08,32.47,12.07,15.64,0,26.12-7.29a38.35,38.35,0,0,0,12.05-13.43,11.7,11.7,0,0,1,10.34-6.06Z" transform="translate(-16.59 -186.88)"/><path class="cls-1" d="M257,310.41c0,1.68,0,3.4-.11,5.16a9.82,9.82,0,0,1-9.81,9.41H196.07a9.81,9.81,0,0,1-9.8-9.81h0a9.81,9.81,0,0,1,9.8-9.81h25.16a9.8,9.8,0,0,0,9.58-12A40.08,40.08,0,0,0,226,281.65a39.57,39.57,0,0,0-16.58-15.12,51.66,51.66,0,0,0-23.18-5.16,46.64,46.64,0,0,0-20.61,4.49,9.77,9.77,0,0,1-13.74-6.64h0a11.6,11.6,0,0,1,7.29-13.47A79.36,79.36,0,0,1,187.32,241q20.67,0,36.59,9a62.41,62.41,0,0,1,24.51,24.78C254.17,285.28,257,297.14,257,310.41Z" transform="translate(-16.59 -186.88)"/><path class="cls-1" d="M320.58,358.45l-15.41,25.14a10.47,10.47,0,0,1-8.93,5h0a10.47,10.47,0,0,1-8.78-16.19l16.09-24.72a10.08,10.08,0,0,1,17,.12h0A10.07,10.07,0,0,1,320.58,358.45Z" transform="translate(-16.59 -186.88)"/><path class="cls-1" d="M377.87,388.59h-2.44a10.45,10.45,0,0,1-8.83-4.84l-31.36-49.22-11.4-18-36.58-57a10.48,10.48,0,0,1,8.82-16.13h2.41a10.46,10.46,0,0,1,8.82,4.83L329.65,283a10.47,10.47,0,0,0,17.76-.18l21.08-34.51a10.49,10.49,0,0,1,8.94-5h0a10.48,10.48,0,0,1,8.79,16.18l-32.47,50a10.46,10.46,0,0,0,0,11.35l33,51.62A10.47,10.47,0,0,1,377.87,388.59Z" transform="translate(-16.59 -186.88)"/><path class="cls-1" d="M421.65,215a16.44,16.44,0,0,1,11.66-28.1,15.15,15.15,0,0,1,11.27,4.77,17,17,0,0,1,0,23.33,15.15,15.15,0,0,1-11.27,4.77A15.87,15.87,0,0,1,421.65,215Z" transform="translate(-16.59 -186.88)"/><path class="cls-1" d="M566.38,313.49v62.93a12.19,12.19,0,1,1-24.37,0,1.16,1.16,0,0,0-1.91-.88,75.74,75.74,0,0,1-68.66,13.64s-.06,0-.08,0a75.74,75.74,0,0,1-37.25-24.74c-.05-.07-.13-.15-.19-.24a64.65,64.65,0,0,1-14.06-40.73V255.93c0-6.82,5.58-12.78,12.4-12.59A12.08,12.08,0,0,1,444,255.4a3.43,3.43,0,0,0,3.48,3.47,3.51,3.51,0,0,0,2.72-1.28,45.94,45.94,0,0,1,12-10c.47-.28.94-.55,1.44-.81,0,0,0,0,.05,0A75.24,75.24,0,0,1,490.28,241h.49v0a26.49,26.49,0,0,1-16.91,24.42,45.77,45.77,0,0,0-4.44,2.06c-.46.25-.91.49-1.37.76a46.12,46.12,0,0,0-17.76,18.56A55.59,55.59,0,0,0,444,308.28c-.23,2.3-.34,4.7-.34,7.16s.11,4.82.32,7.1a56.58,56.58,0,0,0,6.31,21.93,46.89,46.89,0,0,0,17.76,18.82,48,48,0,0,0,24.65,6.5,48.8,48.8,0,0,0,24.79-6.5,46.61,46.61,0,0,0,17.9-18.82Q542,332.14,542,315.7t-6.62-28.61a49,49,0,0,0-10.07-13,11.09,11.09,0,0,1-1.85-14.48h0A11,11,0,0,1,539.3,257c.92.72,1.82,1.47,2.71,2.23s1.47,1.31,2.21,2C558.65,274.64,566.38,293.78,566.38,313.49Z" transform="translate(-16.59 -186.88)"/></svg>